<mxfile host="app.diagrams.net" agent="Mozilla/5.0 (Windows NT 10.0; Win64; x64) AppleWebKit/537.36 (KHTML, like Gecko) Chrome/131.0.0.0 Safari/537.36" version="25.0.3">
  <diagram name="PÃ¡gina-1" id="HGa-fwx1GEIOLemoQNE9">
    <mxGraphModel dx="1434" dy="772" grid="1" gridSize="10" guides="1" tooltips="1" connect="1" arrows="1" fold="1" page="1" pageScale="1" pageWidth="827" pageHeight="1169" math="0" shadow="0">
      <root>
        <mxCell id="0" />
        <mxCell id="1" parent="0" />
        <mxCell id="gTdI1iuHxoQaoECbSsvh-11" value="" style="edgeStyle=orthogonalEdgeStyle;rounded=0;orthogonalLoop=1;jettySize=auto;html=1;" edge="1" parent="1" source="gTdI1iuHxoQaoECbSsvh-2" target="gTdI1iuHxoQaoECbSsvh-7">
          <mxGeometry relative="1" as="geometry" />
        </mxCell>
        <mxCell id="gTdI1iuHxoQaoECbSsvh-2" value="&lt;font style=&quot;vertical-align: inherit;&quot;&gt;&lt;font style=&quot;vertical-align: inherit;&quot;&gt;&lt;font style=&quot;vertical-align: inherit;&quot;&gt;&lt;font style=&quot;vertical-align: inherit;&quot;&gt;MEDIA = (NOTA1 + NOTA2) /2&lt;/font&gt;&lt;/font&gt;&lt;/font&gt;&lt;/font&gt;" style="rounded=1;whiteSpace=wrap;html=1;absoluteArcSize=1;arcSize=14;strokeWidth=2;" vertex="1" parent="1">
          <mxGeometry x="280" y="380" width="240" height="60" as="geometry" />
        </mxCell>
        <mxCell id="gTdI1iuHxoQaoECbSsvh-8" value="" style="edgeStyle=orthogonalEdgeStyle;rounded=0;orthogonalLoop=1;jettySize=auto;html=1;" edge="1" parent="1" source="gTdI1iuHxoQaoECbSsvh-3" target="gTdI1iuHxoQaoECbSsvh-5">
          <mxGeometry relative="1" as="geometry" />
        </mxCell>
        <mxCell id="gTdI1iuHxoQaoECbSsvh-3" value="&lt;font style=&quot;vertical-align: inherit;&quot;&gt;&lt;font style=&quot;vertical-align: inherit;&quot;&gt;INICIO&lt;/font&gt;&lt;/font&gt;" style="ellipse;whiteSpace=wrap;html=1;" vertex="1" parent="1">
          <mxGeometry x="310" y="20" width="190" height="80" as="geometry" />
        </mxCell>
        <mxCell id="gTdI1iuHxoQaoECbSsvh-4" value="NOME" style="html=1;strokeWidth=2;shape=manualInput;whiteSpace=wrap;rounded=1;size=26;arcSize=11;" vertex="1" parent="1">
          <mxGeometry x="350" y="120" width="100" height="60" as="geometry" />
        </mxCell>
        <mxCell id="gTdI1iuHxoQaoECbSsvh-10" value="" style="edgeStyle=orthogonalEdgeStyle;rounded=0;orthogonalLoop=1;jettySize=auto;html=1;" edge="1" parent="1" source="gTdI1iuHxoQaoECbSsvh-5" target="gTdI1iuHxoQaoECbSsvh-6">
          <mxGeometry relative="1" as="geometry" />
        </mxCell>
        <mxCell id="gTdI1iuHxoQaoECbSsvh-5" value="NOTA1" style="html=1;strokeWidth=2;shape=manualInput;whiteSpace=wrap;rounded=1;size=26;arcSize=11;" vertex="1" parent="1">
          <mxGeometry x="350" y="190" width="100" height="60" as="geometry" />
        </mxCell>
        <mxCell id="gTdI1iuHxoQaoECbSsvh-9" value="" style="edgeStyle=orthogonalEdgeStyle;rounded=0;orthogonalLoop=1;jettySize=auto;html=1;" edge="1" parent="1" source="gTdI1iuHxoQaoECbSsvh-6" target="gTdI1iuHxoQaoECbSsvh-2">
          <mxGeometry relative="1" as="geometry" />
        </mxCell>
        <mxCell id="gTdI1iuHxoQaoECbSsvh-6" value="NOTA2" style="html=1;strokeWidth=2;shape=manualInput;whiteSpace=wrap;rounded=1;size=26;arcSize=11;" vertex="1" parent="1">
          <mxGeometry x="350" y="280" width="100" height="60" as="geometry" />
        </mxCell>
        <mxCell id="gTdI1iuHxoQaoECbSsvh-7" value="&lt;font style=&quot;vertical-align: inherit;&quot;&gt;&lt;font style=&quot;vertical-align: inherit;&quot;&gt;&lt;font style=&quot;vertical-align: inherit;&quot;&gt;&lt;font style=&quot;vertical-align: inherit;&quot;&gt;&lt;font style=&quot;vertical-align: inherit;&quot;&gt;&lt;font style=&quot;vertical-align: inherit;&quot;&gt;&lt;font style=&quot;vertical-align: inherit;&quot;&gt;&lt;font style=&quot;vertical-align: inherit;&quot;&gt;NOME&lt;/font&gt;&lt;/font&gt;&lt;/font&gt;&lt;/font&gt;&lt;/font&gt;&lt;/font&gt;&lt;/font&gt;&lt;/font&gt;&lt;div&gt;NOTA1&lt;/div&gt;&lt;div&gt;NOTA2&lt;/div&gt;&lt;div&gt;MEDIA&lt;/div&gt;" style="strokeWidth=2;html=1;shape=mxgraph.flowchart.display;whiteSpace=wrap;" vertex="1" parent="1">
          <mxGeometry x="340" y="470" width="120" height="70" as="geometry" />
        </mxCell>
        <mxCell id="gTdI1iuHxoQaoECbSsvh-12" value="MEDIA &amp;gt;=7" style="strokeWidth=2;html=1;shape=mxgraph.flowchart.decision;whiteSpace=wrap;" vertex="1" parent="1">
          <mxGeometry x="350" y="580" width="100" height="100" as="geometry" />
        </mxCell>
        <mxCell id="gTdI1iuHxoQaoECbSsvh-41" style="edgeStyle=orthogonalEdgeStyle;rounded=0;orthogonalLoop=1;jettySize=auto;html=1;" edge="1" parent="1">
          <mxGeometry relative="1" as="geometry">
            <mxPoint x="607" y="970" as="targetPoint" />
            <mxPoint x="608" y="660" as="sourcePoint" />
          </mxGeometry>
        </mxCell>
        <mxCell id="gTdI1iuHxoQaoECbSsvh-13" value="APROVADO" style="strokeWidth=2;html=1;shape=mxgraph.flowchart.display;whiteSpace=wrap;" vertex="1" parent="1">
          <mxGeometry x="560" y="600" width="100" height="60" as="geometry" />
        </mxCell>
        <mxCell id="gTdI1iuHxoQaoECbSsvh-24" style="edgeStyle=orthogonalEdgeStyle;rounded=0;orthogonalLoop=1;jettySize=auto;html=1;" edge="1" parent="1" source="gTdI1iuHxoQaoECbSsvh-14">
          <mxGeometry relative="1" as="geometry">
            <mxPoint x="330" y="770" as="targetPoint" />
          </mxGeometry>
        </mxCell>
        <mxCell id="gTdI1iuHxoQaoECbSsvh-25" style="edgeStyle=orthogonalEdgeStyle;rounded=0;orthogonalLoop=1;jettySize=auto;html=1;" edge="1" parent="1" source="gTdI1iuHxoQaoECbSsvh-14">
          <mxGeometry relative="1" as="geometry">
            <mxPoint x="140" y="770" as="targetPoint" />
          </mxGeometry>
        </mxCell>
        <mxCell id="gTdI1iuHxoQaoECbSsvh-29" value="NAO" style="edgeLabel;html=1;align=center;verticalAlign=middle;resizable=0;points=[];" vertex="1" connectable="0" parent="gTdI1iuHxoQaoECbSsvh-25">
          <mxGeometry x="-0.3425" y="-3" relative="1" as="geometry">
            <mxPoint as="offset" />
          </mxGeometry>
        </mxCell>
        <mxCell id="gTdI1iuHxoQaoECbSsvh-14" value="MEDIA&amp;gt;=2" style="strokeWidth=2;html=1;shape=mxgraph.flowchart.decision;whiteSpace=wrap;" vertex="1" parent="1">
          <mxGeometry x="180" y="650" width="100" height="100" as="geometry" />
        </mxCell>
        <mxCell id="gTdI1iuHxoQaoECbSsvh-26" style="edgeStyle=orthogonalEdgeStyle;rounded=0;orthogonalLoop=1;jettySize=auto;html=1;entryX=0;entryY=0.5;entryDx=0;entryDy=0;entryPerimeter=0;" edge="1" parent="1" source="gTdI1iuHxoQaoECbSsvh-15" target="gTdI1iuHxoQaoECbSsvh-17">
          <mxGeometry relative="1" as="geometry">
            <mxPoint x="140" y="930" as="targetPoint" />
            <Array as="points">
              <mxPoint x="140" y="880" />
              <mxPoint x="141" y="880" />
              <mxPoint x="141" y="925" />
            </Array>
          </mxGeometry>
        </mxCell>
        <mxCell id="gTdI1iuHxoQaoECbSsvh-15" value="REPROVADO" style="strokeWidth=2;html=1;shape=mxgraph.flowchart.display;whiteSpace=wrap;" vertex="1" parent="1">
          <mxGeometry x="90" y="780" width="100" height="60" as="geometry" />
        </mxCell>
        <mxCell id="gTdI1iuHxoQaoECbSsvh-27" style="edgeStyle=orthogonalEdgeStyle;rounded=0;orthogonalLoop=1;jettySize=auto;html=1;" edge="1" parent="1" source="gTdI1iuHxoQaoECbSsvh-16">
          <mxGeometry relative="1" as="geometry">
            <mxPoint x="260" y="930" as="targetPoint" />
            <Array as="points">
              <mxPoint x="320" y="875" />
              <mxPoint x="321" y="875" />
              <mxPoint x="321" y="920" />
              <mxPoint x="260" y="920" />
            </Array>
          </mxGeometry>
        </mxCell>
        <mxCell id="gTdI1iuHxoQaoECbSsvh-16" value="RECUPERACAO" style="strokeWidth=2;html=1;shape=mxgraph.flowchart.display;whiteSpace=wrap;" vertex="1" parent="1">
          <mxGeometry x="270" y="780" width="100" height="60" as="geometry" />
        </mxCell>
        <mxCell id="gTdI1iuHxoQaoECbSsvh-34" style="edgeStyle=orthogonalEdgeStyle;rounded=0;orthogonalLoop=1;jettySize=auto;html=1;" edge="1" parent="1" source="gTdI1iuHxoQaoECbSsvh-17">
          <mxGeometry relative="1" as="geometry">
            <mxPoint x="360" y="970" as="targetPoint" />
            <Array as="points">
              <mxPoint x="240" y="960" />
              <mxPoint x="241" y="960" />
            </Array>
          </mxGeometry>
        </mxCell>
        <mxCell id="gTdI1iuHxoQaoECbSsvh-17" value="" style="strokeWidth=2;html=1;shape=mxgraph.flowchart.terminator;whiteSpace=wrap;" vertex="1" parent="1">
          <mxGeometry x="220" y="910" width="40" height="30" as="geometry" />
        </mxCell>
        <mxCell id="gTdI1iuHxoQaoECbSsvh-42" style="edgeStyle=orthogonalEdgeStyle;rounded=0;orthogonalLoop=1;jettySize=auto;html=1;" edge="1" parent="1" source="gTdI1iuHxoQaoECbSsvh-18">
          <mxGeometry relative="1" as="geometry">
            <mxPoint x="610" y="965" as="targetPoint" />
          </mxGeometry>
        </mxCell>
        <mxCell id="gTdI1iuHxoQaoECbSsvh-18" value="" style="strokeWidth=2;html=1;shape=mxgraph.flowchart.terminator;whiteSpace=wrap;" vertex="1" parent="1">
          <mxGeometry x="380" y="950" width="40" height="30" as="geometry" />
        </mxCell>
        <mxCell id="gTdI1iuHxoQaoECbSsvh-19" value="FIM" style="strokeWidth=2;html=1;shape=mxgraph.flowchart.start_2;whiteSpace=wrap;" vertex="1" parent="1">
          <mxGeometry x="350" y="1010" width="100" height="100" as="geometry" />
        </mxCell>
        <mxCell id="gTdI1iuHxoQaoECbSsvh-20" style="edgeStyle=orthogonalEdgeStyle;rounded=0;orthogonalLoop=1;jettySize=auto;html=1;entryX=0;entryY=0.5;entryDx=0;entryDy=0;entryPerimeter=0;" edge="1" parent="1" source="gTdI1iuHxoQaoECbSsvh-12" target="gTdI1iuHxoQaoECbSsvh-13">
          <mxGeometry relative="1" as="geometry" />
        </mxCell>
        <mxCell id="gTdI1iuHxoQaoECbSsvh-21" value="SIM" style="text;html=1;align=center;verticalAlign=middle;resizable=0;points=[];autosize=1;strokeColor=none;fillColor=none;" vertex="1" parent="1">
          <mxGeometry x="460" y="610" width="40" height="30" as="geometry" />
        </mxCell>
        <mxCell id="gTdI1iuHxoQaoECbSsvh-22" style="edgeStyle=orthogonalEdgeStyle;rounded=0;orthogonalLoop=1;jettySize=auto;html=1;entryX=0.5;entryY=0;entryDx=0;entryDy=0;entryPerimeter=0;" edge="1" parent="1" source="gTdI1iuHxoQaoECbSsvh-12" target="gTdI1iuHxoQaoECbSsvh-14">
          <mxGeometry relative="1" as="geometry" />
        </mxCell>
        <mxCell id="gTdI1iuHxoQaoECbSsvh-30" value="SIM" style="text;html=1;align=center;verticalAlign=middle;resizable=0;points=[];autosize=1;strokeColor=none;fillColor=none;" vertex="1" parent="1">
          <mxGeometry x="300" y="678" width="40" height="30" as="geometry" />
        </mxCell>
      </root>
    </mxGraphModel>
  </diagram>
</mxfile>
